# This file uses centimeters as units for non-parametric coordinates.

mtllib Props_NonSticky_WallsWindow.mtl
g default
v 0.000000 5.409271 0.000000
v -0.000000 0.006969 0.000000
v 0.000000 5.409271 -5.402302
v -0.000000 0.006969 -5.402302
v -0.000000 1.328917 -1.823246
v 0.000000 4.087322 -3.579056
v 0.000000 4.087322 -1.823246
v -0.000000 1.328917 -3.579056
vt 0.244962 0.664056
vt 0.757732 0.665889
vt 1.000000 1.000000
vt 0.000000 1.000000
vt 0.000000 0.000000
vt 0.242268 0.334111
vt 0.755039 0.335944
vt 1.000000 0.000000
vn 1.000000 -0.000000 0.000000
vn 1.000000 -0.000000 0.000000
vn 1.000000 -0.000000 0.000000
vn 1.000000 -0.000000 0.000000
vn 1.000000 -0.000000 0.000000
vn 1.000000 -0.000000 0.000000
vn 1.000000 -0.000000 0.000000
vn 1.000000 -0.000000 0.000000
vn 1.000000 -0.000000 0.000000
vn 1.000000 -0.000000 0.000000
vn 1.000000 -0.000000 0.000000
vn 1.000000 -0.000000 0.000000
vn 1.000000 -0.000000 0.000000
vn 1.000000 -0.000000 0.000000
vn 1.000000 -0.000000 0.000000
vn 1.000000 -0.000000 0.000000
s off
g WindowWall
usemtl initialShadingGroup
f 6/1/1 8/2/2 4/3/3 3/4/4
f 1/5/5 7/6/6 6/1/7 3/4/8
f 5/7/9 7/6/10 1/5/11 2/8/12
f 4/3/13 8/2/14 5/7/15 2/8/16
g default
v 0.047771 1.328917 -3.579056
v 0.047771 4.087322 -3.579056
v 0.047771 3.959891 -3.462471
v 0.047771 1.456348 -3.462471
v 0.047771 4.087322 -1.823246
v 0.047771 3.959891 -1.939831
v 0.047771 1.328917 -1.823246
v 0.047771 1.456348 -1.939831
v -0.000000 1.328917 -3.579056
v 0.000000 4.087322 -3.579056
v 0.000000 3.959891 -3.462471
v -0.000000 1.456348 -3.462471
v 0.000000 4.087322 -1.823246
v 0.000000 3.959891 -1.939831
v -0.000000 1.328917 -1.823246
v -0.000000 1.456348 -1.939831
v -0.044712 1.537554 -1.967680
v 0.044712 1.485925 -1.967680
v -0.044712 1.537554 -3.427558
v 0.044712 1.485925 -3.427558
v -0.044712 1.687554 -1.967680
v 0.044712 1.635925 -1.967680
v -0.044712 1.687554 -3.427558
v 0.044712 1.635925 -3.427558
v -0.044712 1.837554 -1.967680
v 0.044712 1.785925 -1.967680
v -0.044712 1.837554 -3.427558
v 0.044712 1.785925 -3.427558
v -0.044712 1.987554 -1.967680
v 0.044712 1.935925 -1.967680
v -0.044712 1.987554 -3.427558
v 0.044712 1.935925 -3.427558
v -0.044712 2.137554 -1.967680
v 0.044712 2.085925 -1.967680
v -0.044712 2.137554 -3.427558
v 0.044712 2.085925 -3.427558
v -0.044712 2.287554 -1.967680
v 0.044712 2.235925 -1.967680
v -0.044712 2.287554 -3.427558
v 0.044712 2.235925 -3.427558
v -0.044712 2.437554 -1.967680
v 0.044712 2.385925 -1.967680
v -0.044712 2.437554 -3.427558
v 0.044712 2.385925 -3.427558
v -0.044712 2.587554 -1.967680
v 0.044712 2.535925 -1.967680
v -0.044712 2.587554 -3.427558
v 0.044712 2.535925 -3.427558
v -0.044712 2.737554 -1.967680
v 0.044712 2.685925 -1.967680
v -0.044712 2.737554 -3.427558
v 0.044712 2.685925 -3.427558
v -0.044712 2.887554 -1.967680
v 0.044712 2.835925 -1.967680
v -0.044712 2.887554 -3.427558
v 0.044712 2.835925 -3.427558
v -0.044712 3.037554 -1.967680
v 0.044712 2.985925 -1.967680
v -0.044712 3.037554 -3.427558
v 0.044712 2.985925 -3.427558
v -0.044712 3.187554 -1.967680
v 0.044712 3.135925 -1.967680
v -0.044712 3.187554 -3.427558
v 0.044712 3.135925 -3.427558
v -0.044712 3.337554 -1.967680
v 0.044712 3.285925 -1.967680
v -0.044712 3.337554 -3.427558
v 0.044712 3.285925 -3.427558
v -0.044712 3.487554 -1.967680
v 0.044712 3.435925 -1.967680
v -0.044712 3.487554 -3.427558
v 0.044712 3.435925 -3.427558
v -0.044712 3.637554 -1.967680
v 0.044712 3.585925 -1.967680
v -0.044712 3.637554 -3.427558
v 0.044712 3.585925 -3.427558
v -0.044712 3.787554 -1.967680
v 0.044712 3.735925 -1.967680
v -0.044712 3.787554 -3.427558
v 0.044712 3.735925 -3.427558
v -0.044712 3.937554 -1.967680
v 0.044712 3.885925 -1.967680
v -0.044712 3.937554 -3.427558
v 0.044712 3.885925 -3.427558
vt 0.982600 0.871972
vt 0.023845 0.878858
vt 0.068514 0.830972
vt 0.936915 0.825234
vt 0.032905 0.408927
vt 0.939610 0.404272
vt 0.885277 0.473839
vt 0.088640 0.476927
vt 0.008172 0.711276
vt 0.992271 0.704348
vt 0.953523 0.756663
vt 0.048116 0.762778
vt 0.068893 0.571695
vt 0.970590 0.566520
vt 0.916853 0.637450
vt 0.125172 0.641329
vt 0.982406 0.890078
vt 0.024265 0.896968
vt 0.068735 0.812849
vt 0.936492 0.807116
vt 0.031893 0.384649
vt 0.940329 0.379984
vt 0.884799 0.498129
vt 0.089338 0.501208
vt 0.008817 0.693062
vt 0.991180 0.686159
vt 0.954177 0.774922
vt 0.047888 0.781054
vt 0.069806 0.547375
vt 0.970018 0.542220
vt 0.916637 0.661736
vt 0.125005 0.665626
vt 0.916639 0.916532
vt 0.917050 0.975846
vt 0.136613 0.981258
vt 0.136202 0.921944
vt 0.916639 0.916532
vt 0.917050 0.975846
vt 0.136613 0.981258
vt 0.136202 0.921944
vt 0.916639 0.916532
vt 0.917050 0.975846
vt 0.136613 0.981258
vt 0.136202 0.921944
vt 0.916639 0.916532
vt 0.917050 0.975846
vt 0.136613 0.981258
vt 0.136202 0.921944
vt 0.916639 0.916532
vt 0.917050 0.975846
vt 0.136613 0.981258
vt 0.136202 0.921944
vt 0.916639 0.916532
vt 0.917050 0.975846
vt 0.136613 0.981258
vt 0.136202 0.921944
vt 0.916639 0.916532
vt 0.917050 0.975846
vt 0.136613 0.981258
vt 0.136202 0.921944
vt 0.916639 0.916532
vt 0.917050 0.975846
vt 0.136613 0.981258
vt 0.136202 0.921944
vt 0.916639 0.916532
vt 0.917050 0.975846
vt 0.136613 0.981258
vt 0.136202 0.921944
vt 0.916639 0.916532
vt 0.917050 0.975846
vt 0.136613 0.981258
vt 0.136202 0.921944
vt 0.916639 0.916532
vt 0.917050 0.975846
vt 0.136613 0.981258
vt 0.136202 0.921944
vt 0.916639 0.916532
vt 0.917050 0.975846
vt 0.136613 0.981258
vt 0.136202 0.921944
vt 0.916639 0.916532
vt 0.917050 0.975846
vt 0.136613 0.981258
vt 0.136202 0.921944
vt 0.916639 0.916532
vt 0.917050 0.975846
vt 0.136613 0.981258
vt 0.136202 0.921944
vt 0.916639 0.916532
vt 0.917050 0.975846
vt 0.136613 0.981258
vt 0.136202 0.921944
vt 0.916639 0.916532
vt 0.917050 0.975846
vt 0.136613 0.981258
vt 0.136202 0.921944
vt 0.916639 0.916532
vt 0.917050 0.975846
vt 0.136613 0.981258
vt 0.136202 0.921944
vn 1.000000 0.000000 0.000000
vn 1.000000 0.000000 0.000000
vn 1.000000 0.000000 0.000000
vn 1.000000 0.000000 0.000000
vn 1.000000 -0.000000 0.000000
vn 1.000000 -0.000000 0.000000
vn 1.000000 -0.000000 0.000000
vn 1.000000 -0.000000 0.000000
vn 1.000000 0.000000 0.000000
vn 1.000000 0.000000 0.000000
vn 1.000000 0.000000 0.000000
vn 1.000000 0.000000 0.000000
vn 1.000000 0.000000 0.000000
vn 1.000000 0.000000 0.000000
vn 1.000000 0.000000 0.000000
vn 1.000000 0.000000 0.000000
vn 0.000000 0.000000 -1.000000
vn 0.000000 0.000000 -1.000000
vn 0.000000 0.000000 -1.000000
vn 0.000000 0.000000 -1.000000
vn 0.000000 0.000000 1.000000
vn 0.000000 0.000000 1.000000
vn 0.000000 0.000000 1.000000
vn 0.000000 0.000000 1.000000
vn 0.000000 1.000000 0.000000
vn 0.000000 1.000000 0.000000
vn 0.000000 1.000000 0.000000
vn 0.000000 1.000000 0.000000
vn 0.000000 -1.000000 0.000000
vn 0.000000 -1.000000 0.000000
vn 0.000000 -1.000000 0.000000
vn 0.000000 -1.000000 0.000000
vn 0.000000 0.000000 1.000000
vn 0.000000 0.000000 1.000000
vn 0.000000 0.000000 1.000000
vn 0.000000 0.000000 1.000000
vn 0.000000 0.000000 -1.000000
vn 0.000000 0.000000 -1.000000
vn 0.000000 0.000000 -1.000000
vn 0.000000 0.000000 -1.000000
vn 0.000000 -1.000000 0.000000
vn 0.000000 -1.000000 0.000000
vn 0.000000 -1.000000 0.000000
vn 0.000000 -1.000000 0.000000
vn 0.000000 1.000000 0.000000
vn 0.000000 1.000000 0.000000
vn 0.000000 1.000000 0.000000
vn 0.000000 1.000000 0.000000
vn 0.500000 0.866025 0.000000
vn 0.500000 0.866025 0.000000
vn 0.500000 0.866025 0.000000
vn 0.500000 0.866025 0.000000
vn 0.500000 0.866025 0.000000
vn 0.500000 0.866025 0.000000
vn 0.500000 0.866025 0.000000
vn 0.500000 0.866025 0.000000
vn 0.500000 0.866025 0.000000
vn 0.500000 0.866025 0.000000
vn 0.500000 0.866025 0.000000
vn 0.500000 0.866025 0.000000
vn 0.500000 0.866025 0.000000
vn 0.500000 0.866025 0.000000
vn 0.500000 0.866025 0.000000
vn 0.500000 0.866025 0.000000
vn 0.500000 0.866025 0.000000
vn 0.500000 0.866025 0.000000
vn 0.500000 0.866025 0.000000
vn 0.500000 0.866025 0.000000
vn 0.500000 0.866025 0.000000
vn 0.500000 0.866025 0.000000
vn 0.500000 0.866025 0.000000
vn 0.500000 0.866025 0.000000
vn 0.500000 0.866025 0.000000
vn 0.500000 0.866025 0.000000
vn 0.500000 0.866025 0.000000
vn 0.500000 0.866025 0.000000
vn 0.500000 0.866025 0.000000
vn 0.500000 0.866025 0.000000
vn 0.500000 0.866025 0.000000
vn 0.500000 0.866025 0.000000
vn 0.500000 0.866025 0.000000
vn 0.500000 0.866025 0.000000
vn 0.500000 0.866025 0.000000
vn 0.500000 0.866025 0.000000
vn 0.500000 0.866025 0.000000
vn 0.500000 0.866025 0.000000
vn 0.500000 0.866025 0.000000
vn 0.500000 0.866025 0.000000
vn 0.500000 0.866025 0.000000
vn 0.500000 0.866025 0.000000
vn 0.500000 0.866025 0.000000
vn 0.500000 0.866025 0.000000
vn 0.500000 0.866025 0.000000
vn 0.500000 0.866025 0.000000
vn 0.500000 0.866025 0.000000
vn 0.500000 0.866025 0.000000
vn 0.500000 0.866025 0.000000
vn 0.500000 0.866025 0.000000
vn 0.500000 0.866025 0.000000
vn 0.500000 0.866025 0.000000
vn 0.500000 0.866025 0.000000
vn 0.500000 0.866025 0.000000
vn 0.500000 0.866025 0.000000
vn 0.500000 0.866025 0.000000
vn 0.500000 0.866025 0.000000
vn 0.500000 0.866025 0.000000
vn 0.500000 0.866025 0.000000
vn 0.500000 0.866025 0.000000
vn 0.500000 0.866025 0.000000
vn 0.500000 0.866025 0.000000
vn 0.500000 0.866025 0.000000
vn 0.500000 0.866025 0.000000
vn 0.500000 0.866025 0.000000
vn 0.500000 0.866025 0.000000
vn 0.500000 0.866025 0.000000
vn 0.500000 0.866025 0.000000
s off
g Wall_Window
usemtl initialShadingGroup
f 9/9/17 10/10/18 11/11/19 12/12/20
f 10/13/21 13/14/22 14/15/23 11/16/24
f 13/17/25 15/18/26 16/19/27 14/20/28
f 15/21/29 9/22/30 12/23/31 16/24/32
f 17/25/33 18/26/34 10/10/35 9/9/36
f 19/27/37 20/28/38 12/12/39 11/11/40
f 18/29/41 21/30/42 13/14/43 10/13/44
f 22/31/45 19/32/46 11/16/47 14/15/48
f 21/33/49 23/34/50 15/18/51 13/17/52
f 24/35/53 22/36/54 14/20/55 16/19/56
f 23/37/57 17/38/58 9/22/59 15/21/60
f 20/39/61 24/40/62 16/24/63 12/23/64
f 25/41/65 26/42/66 28/43/67 27/44/68
f 29/45/69 30/46/70 32/47/71 31/48/72
f 33/49/73 34/50/74 36/51/75 35/52/76
f 37/53/77 38/54/78 40/55/79 39/56/80
f 41/57/81 42/58/82 44/59/83 43/60/84
f 45/61/85 46/62/86 48/63/87 47/64/88
f 49/65/89 50/66/90 52/67/91 51/68/92
f 53/69/93 54/70/94 56/71/95 55/72/96
f 57/73/97 58/74/98 60/75/99 59/76/100
f 61/77/101 62/78/102 64/79/103 63/80/104
f 65/81/105 66/82/106 68/83/107 67/84/108
f 69/85/109 70/86/110 72/87/111 71/88/112
f 73/89/113 74/90/114 76/91/115 75/92/116
f 77/93/117 78/94/118 80/95/119 79/96/120
f 81/97/121 82/98/122 84/99/123 83/100/124
f 85/101/125 86/102/126 88/103/127 87/104/128
f 89/105/129 90/106/130 92/107/131 91/108/132
