# This file uses centimeters as units for non-parametric coordinates.

mtllib Props_Sticky_Door.mtl
g default
v -0.989973 -2.260773 0.040507
v 0.989973 -2.260773 0.040507
v -0.989973 2.260773 0.040507
v 0.989973 2.260773 0.040507
v -0.989973 2.260773 -0.040507
v 0.989973 2.260773 -0.040507
v -0.989973 -2.260773 -0.040507
v 0.989973 -2.260773 -0.040507
v 1.305668 2.569515 -0.048477
v -1.305668 2.569515 -0.048477
v 1.305668 -2.259316 -0.048477
v -1.305668 -2.259316 -0.048477
v -0.989973 2.260773 0.086417
v 0.989973 2.260773 0.086417
v 1.305668 2.569515 0.094386
v -1.305668 2.569515 0.094386
v 0.989973 -2.260773 0.086417
v 1.305668 -2.259316 0.094386
v -0.989973 -2.260773 0.086417
v -1.305668 -2.259316 0.094386
v -0.795010 0.268358 0.117333
v -0.795010 0.255585 0.106481
v -0.795010 0.239796 0.106481
v -0.795010 0.227023 0.117333
v -0.795010 0.225798 0.134893
v -0.795010 0.227023 0.152452
v -0.795010 0.239796 0.163305
v -0.795010 0.255585 0.163305
v -0.795010 0.268358 0.152452
v -0.795010 0.268373 0.134893
v -0.421884 0.222867 0.123323
v -0.418386 0.214170 0.115355
v -0.414061 0.203421 0.115355
v -0.410563 0.194725 0.123323
v -0.409227 0.195056 0.134893
v -0.410563 0.194725 0.147785
v -0.414061 0.203421 0.155753
v -0.418386 0.214170 0.155753
v -0.421884 0.222867 0.147785
v -0.423220 0.221325 0.134893
v -0.803525 0.246758 0.134893
v -0.409947 0.210129 0.134893
v -0.483096 0.189517 0.166068
v -0.483096 0.176173 0.166068
v -0.483096 0.155281 0.149833
v -0.483096 0.150955 0.135032
v -0.483096 0.155281 0.121267
v -0.483096 0.176173 0.105032
v -0.483096 0.189517 0.105032
v -0.483096 0.208306 0.121267
v -0.483096 0.211423 0.135032
v -0.483096 0.208306 0.149833
v -0.450339 0.224396 0.149769
v -0.446795 0.208451 0.163047
v -0.442414 0.186142 0.163047
v -0.438870 0.168094 0.149769
v -0.437517 0.164853 0.134994
v -0.438870 0.168094 0.121366
v -0.442414 0.186142 0.108088
v -0.446795 0.208451 0.108088
v -0.450339 0.224396 0.121366
v -0.451693 0.226427 0.134994
v -0.528478 0.199646 0.151467
v -0.528478 0.187590 0.161710
v -0.528478 0.172687 0.161710
v -0.528478 0.160631 0.151467
v -0.528478 0.159679 0.134893
v -0.528478 0.160631 0.118319
v -0.528478 0.172687 0.108075
v -0.528478 0.187590 0.108075
v -0.528478 0.199646 0.118319
v -0.528478 0.199388 0.134893
v -0.652145 0.272977 0.151241
v -0.656598 0.259901 0.161346
v -0.662103 0.243738 0.161346
v -0.666556 0.230662 0.151241
v -0.668257 0.229321 0.134893
v -0.666556 0.230662 0.118544
v -0.662103 0.243738 0.108440
v -0.656598 0.259901 0.108440
v -0.652145 0.272977 0.118544
v -0.650444 0.273109 0.134893
v -0.769899 0.264447 0.171050
v -0.769899 0.240923 0.171050
v -0.769899 0.221893 0.157239
v -0.769899 0.218277 0.134893
v -0.769899 0.221893 0.112546
v -0.769899 0.240923 0.098735
v -0.769899 0.264447 0.098735
v -0.769899 0.283477 0.112546
v -0.769899 0.285883 0.134893
v -0.769899 0.283477 0.157239
v -0.722928 0.276801 0.167060
v -0.722928 0.255026 0.167060
v -0.722928 0.237410 0.154773
v -0.722928 0.234334 0.134893
v -0.722928 0.237410 0.115012
v -0.722928 0.255026 0.102726
v -0.722928 0.276801 0.102726
v -0.722928 0.294417 0.115012
v -0.722928 0.296283 0.134893
v -0.722928 0.294417 0.154773
v -0.587450 0.205745 0.157232
v -0.591508 0.196061 0.148306
v -0.593057 0.196015 0.133863
v -0.591508 0.196061 0.119421
v -0.587450 0.205745 0.110495
v -0.582435 0.217716 0.110495
v -0.578378 0.227400 0.119421
v -0.576828 0.226236 0.133863
v -0.578378 0.227400 0.148306
v -0.582435 0.217716 0.157232
v -0.751919 0.271241 0.154144
v -0.766564 0.277307 0.154144
v -0.781209 0.271241 0.154144
v -0.787276 0.256595 0.154144
v -0.781209 0.241950 0.154144
v -0.766564 0.235884 0.154144
v -0.751919 0.241950 0.154144
v -0.745853 0.256595 0.154144
v -0.781154 0.271241 0.056337
v -0.766509 0.277307 0.056337
v -0.751864 0.271241 0.056337
v -0.745798 0.256595 0.056337
v -0.751864 0.241950 0.056337
v -0.766509 0.235884 0.056337
v -0.781154 0.241950 0.056337
v -0.787221 0.256595 0.056337
v -0.717514 0.305668 0.043391
v -0.766586 0.325994 0.043391
v -0.766402 0.321832 0.052725
v -0.720272 0.302725 0.052725
v -0.815658 0.305668 0.043391
v -0.812531 0.302725 0.052725
v -0.835985 0.256595 0.043391
v -0.831638 0.256595 0.052725
v -0.815658 0.207523 0.043391
v -0.812531 0.210466 0.052725
v -0.766586 0.187197 0.043391
v -0.766402 0.191359 0.052725
v -0.717514 0.207523 0.043391
v -0.720272 0.210466 0.052725
v -0.697187 0.256595 0.043391
v -0.701165 0.256595 0.052725
v -0.715039 0.054607 0.044643
v -0.766331 0.075853 0.044643
v -0.817623 0.054607 0.044643
v -0.838869 0.003315 0.044643
v -0.817623 -0.047977 0.044643
v -0.766331 -0.069223 0.044643
v -0.715039 -0.047977 0.044643
v -0.693793 0.003315 0.044643
v -0.720686 0.048960 0.055648
v -0.766331 0.067866 0.055648
v -0.811976 0.048960 0.055648
v -0.830882 0.003315 0.055648
v -0.811976 -0.042330 0.055648
v -0.766331 -0.061237 0.055648
v -0.720686 -0.042330 0.055648
v -0.701779 0.003315 0.055648
v -0.766331 0.003315 0.058252
vt 0.531575 0.017585
vt 0.589223 0.017463
vt 0.588571 0.757474
vt 0.533614 0.811052
vt 0.452458 0.756624
vt 0.450152 0.017170
vt 0.507274 0.017468
vt 0.509218 0.811104
vt 0.983544 0.809956
vt 0.039084 0.811758
vt 0.978701 0.020070
vt 0.045426 0.015677
vt 0.928077 0.756814
vt 0.101959 0.015825
vt 0.096359 0.756712
vt 0.921790 0.019461
vt 0.110999 0.015800
vt 0.102975 0.753112
vt 0.445876 0.753038
vt 0.441059 0.017087
vt 0.038731 0.840591
vt 0.014332 0.811489
vt 0.020435 0.015358
vt 0.509858 0.840027
vt 0.420970 0.929660
vt 0.398669 0.947169
vt 0.388611 0.926463
vt 0.412321 0.916336
vt 0.385847 0.903207
vt 0.410559 0.901489
vt 0.390935 0.880446
vt 0.415965 0.887260
vt 0.400924 0.861251
vt 0.428379 0.878465
vt 0.428425 0.878722
vt 0.401134 0.861570
vt 0.391019 0.880667
vt 0.415970 0.887327
vt 0.385803 0.903273
vt 0.410495 0.901680
vt 0.388531 0.926502
vt 0.412244 0.916348
vt 0.398562 0.947208
vt 0.420836 0.929802
vt 0.414145 0.963348
vt 0.436342 0.932725
vt 0.436449 0.932591
vt 0.414202 0.963328
vt 0.438974 0.904440
vt 0.438947 0.904550
vt 0.030061 0.950475
vt 0.010249 0.941654
vt 0.031142 0.939058
vt 0.027252 0.928772
vt 0.017668 0.921838
vt 0.006032 0.924667
vt 0.006007 0.924800
vt 0.010279 0.941635
vt 0.017632 0.921862
vt 0.027333 0.928712
vt 0.031217 0.938997
vt 0.029850 0.950640
vt 0.022121 0.959013
vt 0.021869 0.959378
vt 0.091440 0.906410
vt 0.053504 0.912866
vt 0.059262 0.935687
vt 0.092965 0.920601
vt 0.085893 0.879404
vt 0.042367 0.893159
vt 0.082537 0.864785
vt 0.031989 0.881660
vt 0.085827 0.879531
vt 0.041845 0.893173
vt 0.032110 0.881762
vt 0.082541 0.864792
vt 0.091371 0.906495
vt 0.053363 0.912938
vt 0.092889 0.920714
vt 0.059173 0.935753
vt 0.092605 0.947631
vt 0.056610 0.956988
vt 0.092925 0.962837
vt 0.054419 0.970590
vt 0.092665 0.947553
vt 0.056660 0.956939
vt 0.054760 0.970433
vt 0.093722 0.962911
vt 0.137129 0.915764
vt 0.138537 0.932465
vt 0.134421 0.900142
vt 0.131492 0.883561
vt 0.131626 0.866112
vt 0.131490 0.883650
vt 0.131638 0.866195
vt 0.134438 0.900268
vt 0.137109 0.915938
vt 0.138497 0.932651
vt 0.139612 0.950075
vt 0.139689 0.949916
vt 0.282722 0.936670
vt 0.198522 0.922448
vt 0.197261 0.936833
vt 0.282047 0.954912
vt 0.283986 0.918425
vt 0.200272 0.908934
vt 0.285574 0.900521
vt 0.202041 0.894477
vt 0.286533 0.883109
vt 0.204901 0.879592
vt 0.285574 0.900673
vt 0.202105 0.894707
vt 0.205011 0.879755
vt 0.286488 0.883464
vt 0.284013 0.918899
vt 0.200292 0.909111
vt 0.282770 0.937071
vt 0.198558 0.922665
vt 0.282124 0.955335
vt 0.197267 0.936975
vt 0.279481 0.972053
vt 0.193881 0.951667
vt 0.193882 0.951665
vt 0.279433 0.971794
vt 0.343554 0.916120
vt 0.347967 0.939827
vt 0.343303 0.892381
vt 0.342558 0.871215
vt 0.343186 0.892376
vt 0.341870 0.870955
vt 0.343745 0.916231
vt 0.348088 0.939885
vt 0.355430 0.961794
vt 0.360723 0.981235
vt 0.355326 0.961746
vt 0.360809 0.981268
vt 0.779528 0.969311
vt 0.719782 0.993980
vt 0.720482 0.982020
vt 0.771578 0.960433
vt 0.659924 0.969009
vt 0.668904 0.961034
vt 0.635469 0.909182
vt 0.647305 0.909220
vt 0.660065 0.849422
vt 0.669005 0.857449
vt 0.719856 0.824709
vt 0.720572 0.836678
vt 0.779503 0.849357
vt 0.771554 0.858255
vt 0.804388 0.909352
vt 0.792257 0.909357
vt 0.537274 0.992350
vt 0.515445 0.992345
vt 0.515413 0.859647
vt 0.537234 0.859623
vt 0.559099 0.992383
vt 0.559061 0.859656
vt 0.580929 0.992425
vt 0.580882 0.859723
vt 0.602762 0.992422
vt 0.602708 0.859817
vt 0.624619 0.992145
vt 0.624535 0.860149
vt 0.471789 0.992397
vt 0.449960 0.992140
vt 0.449903 0.860172
vt 0.471759 0.859790
vt 0.493618 0.992380
vt 0.493586 0.859660
vt 0.719347 0.932343
vt 0.735748 0.925499
vt 0.703022 0.925682
vt 0.698277 0.909271
vt 0.703045 0.892868
vt 0.719391 0.886282
vt 0.735742 0.893290
vt 0.743433 0.909389
vt 0.959174 0.968579
vt 0.899344 0.995443
vt 0.898319 0.979920
vt 0.947410 0.958361
vt 0.837893 0.971785
vt 0.848713 0.960241
vt 0.810847 0.912012
vt 0.826157 0.911577
vt 0.834277 0.851082
vt 0.845936 0.861378
vt 0.893970 0.824126
vt 0.895045 0.839654
vt 0.955288 0.847438
vt 0.945048 0.859160
vt 0.982191 0.907205
vt 0.966667 0.908297
vt 0.896636 0.909725
vn -0.025237 0.000000 -0.999682
vn -0.025237 0.000000 -0.999682
vn -0.025237 0.000000 -0.999682
vn -0.025237 0.000000 -0.999681
vn -0.025237 0.000000 0.999682
vn -0.025237 0.000000 0.999682
vn -0.025237 0.000000 0.999682
vn -0.025237 0.000000 0.999681
vn 1.000000 0.000000 0.000000
vn 1.000000 0.000000 0.000000
vn 1.000000 0.000000 0.000000
vn 1.000000 0.000000 0.000000
vn 0.000000 1.000000 0.000000
vn 0.000000 1.000000 0.000000
vn 0.000000 1.000000 0.000000
vn 0.000000 1.000000 0.000000
vn -1.000000 0.000000 0.000000
vn -1.000000 0.000000 0.000000
vn -1.000000 0.000000 0.000000
vn -1.000000 0.000000 0.000000
vn -0.000000 -0.025805 -0.999667
vn -0.000000 -0.025805 -0.999667
vn -0.000000 -0.025805 -0.999667
vn -0.000000 -0.025805 -0.999667
vn 0.025237 0.000000 0.999681
vn 0.025237 0.000000 0.999682
vn 0.025237 0.000000 0.999682
vn 0.025237 0.000000 0.999681
vn 0.025237 0.000000 -0.999682
vn 0.025237 0.000000 -0.999682
vn 0.025237 0.000000 -0.999681
vn 0.025237 0.000000 -0.999681
vn 1.000000 0.000000 0.000000
vn 1.000000 0.000000 0.000000
vn 1.000000 0.000000 0.000000
vn 1.000000 0.000000 0.000000
vn 0.000000 0.000000 1.000000
vn 0.000000 0.000000 1.000000
vn 0.000000 0.000000 1.000000
vn 0.000000 0.000000 1.000000
vn 0.000000 0.000000 -1.000000
vn 0.000000 0.000000 -1.000000
vn 0.000000 0.000000 -1.000000
vn 0.000000 0.000000 -1.000000
vn 0.000000 -0.025805 0.999667
vn 0.000000 -0.025805 0.999667
vn 0.000000 -0.025805 0.999667
vn 0.000000 -0.025805 0.999667
vn 0.000000 -1.000000 0.000000
vn 0.000000 -1.000000 0.000000
vn 0.000000 -1.000000 0.000000
vn 0.000000 -1.000000 0.000000
vn -1.000000 0.000000 0.000000
vn -1.000000 0.000000 0.000000
vn -1.000000 0.000000 0.000000
vn -1.000000 0.000000 0.000000
vn -0.645938 0.668297 -0.368975
vn -0.285958 0.820616 -0.494789
vn -0.121855 0.288209 -0.949782
vn -0.568395 0.242872 -0.786092
vn 0.032184 -0.334817 -0.941734
vn -0.501131 -0.303723 -0.810321
vn 0.118431 -0.855848 -0.503487
vn -0.471556 -0.772590 -0.425134
vn 0.135831 -0.990732 -0.000000
vn -0.472120 -0.881534 -0.000000
vn 0.118431 -0.855847 0.503487
vn -0.471556 -0.772591 0.425134
vn 0.032184 -0.334816 0.941734
vn -0.501131 -0.303724 0.810321
vn -0.121855 0.288210 0.949782
vn -0.568394 0.242873 0.786092
vn -0.285958 0.820616 0.494789
vn -0.645938 0.668298 0.368975
vn -0.342023 0.939691 0.000000
vn -0.668872 0.743378 0.000000
vn -0.999984 -0.005611 0.000000
vn 0.215955 0.863813 -0.455182
vn 0.915777 0.401654 -0.005175
vn 0.290912 0.390763 -0.873312
vn 0.477458 -0.162115 -0.863569
vn 0.680156 -0.538658 -0.497227
vn 0.791454 -0.611228 0.000219
vn 0.690234 -0.542694 0.478603
vn 0.484302 -0.158040 0.860509
vn 0.299124 0.392589 0.869712
vn 0.222034 0.871450 0.437350
vn 0.233159 0.972439 -0.000028
vn 0.052438 -0.390570 0.919079
vn 0.245438 -0.330994 0.911155
vn -0.030442 0.391322 0.919750
vn -0.086470 0.337442 0.937366
vn 0.075503 -0.822791 0.563307
vn 0.388569 -0.731147 0.560749
vn 0.060970 -0.998139 0.000598
vn 0.483538 -0.875323 0.000293
vn 0.080299 -0.816088 -0.572322
vn 0.381564 -0.721290 -0.578057
vn 0.065052 -0.391057 -0.918065
vn 0.245652 -0.331039 -0.911081
vn -0.073011 0.339099 -0.937913
vn -0.030264 0.391349 -0.919744
vn -0.247771 0.804623 -0.539621
vn -0.183651 0.831415 -0.524425
vn -0.316449 0.948610 0.000058
vn -0.220609 0.975362 -0.000127
vn -0.256782 0.807161 0.531558
vn -0.184743 0.841271 0.508069
vn -0.020802 0.320939 0.946871
vn 0.140635 0.853333 0.502040
vn -0.181750 -0.415868 0.891078
vn -0.296227 -0.833571 0.466271
vn -0.363200 -0.931711 0.000166
vn -0.285257 -0.835743 -0.469214
vn -0.156668 -0.420018 -0.893890
vn 0.010565 0.318041 -0.948018
vn 0.161028 0.849005 -0.503250
vn 0.178584 0.983925 -0.000193
vn 0.194149 0.309578 0.930843
vn 0.173718 0.296244 0.939182
vn 0.465598 0.780698 0.416809
vn 0.379447 0.809210 0.448553
vn -0.026389 -0.283972 0.958470
vn -0.166382 -0.321936 0.932027
vn -0.222654 -0.825274 0.518988
vn -0.409799 -0.800960 0.436494
vn -0.269530 -0.962992 0.000375
vn -0.446729 -0.894669 -0.000571
vn -0.229662 -0.824600 -0.517001
vn -0.409074 -0.798203 -0.442188
vn -0.038162 -0.280771 -0.959016
vn -0.165829 -0.318094 -0.933443
vn 0.184340 0.314251 -0.931271
vn 0.171719 0.296997 -0.939311
vn 0.375939 0.812327 -0.445864
vn 0.462570 0.779429 -0.422515
vn 0.424520 0.905419 0.000104
vn 0.511937 0.859023 -0.000053
vn 0.096802 -0.259567 0.960861
vn 0.084045 0.345647 0.934593
vn 0.121469 -0.824417 0.552795
vn 0.119067 -0.992886 -0.000000
vn 0.121469 -0.824417 -0.552795
vn 0.096802 -0.259567 -0.960861
vn 0.084046 0.345647 -0.934593
vn 0.083925 0.877500 -0.472177
vn 0.079121 0.996865 -0.000000
vn 0.083925 0.877500 0.472177
vn 0.646850 0.651400 0.396565
vn -0.004515 0.913266 0.407340
vn 0.001506 0.420003 0.907521
vn 0.298354 0.296833 0.907125
vn -0.644651 0.640162 0.417873
vn -0.295619 0.297115 0.907928
vn -0.906517 -0.000000 0.422170
vn -0.418757 -0.000000 0.908098
vn -0.644651 -0.640161 0.417875
vn -0.295619 -0.297114 0.907928
vn -0.004515 -0.913265 0.407341
vn 0.001506 -0.420003 0.907521
vn 0.646849 -0.651400 0.396566
vn 0.298354 -0.296833 0.907125
vn 0.919952 0.000000 0.392030
vn 0.421212 0.000000 0.906962
vn 0.000137 1.000000 0.000000
vn -0.707039 0.707175 -0.000398
vn -0.707176 0.707038 -0.000398
vn -0.000137 1.000000 0.000000
vn 0.707176 0.707037 0.000399
vn 0.707039 0.707175 0.000399
vn 1.000000 0.000000 0.000564
vn 1.000000 0.000000 0.000564
vn 0.707176 -0.707038 0.000399
vn 0.707038 -0.707175 0.000399
vn 0.000137 -1.000000 0.000000
vn -0.000137 -1.000000 0.000000
vn -0.707039 -0.707175 -0.000398
vn -0.707176 -0.707038 -0.000398
vn -1.000000 0.000000 -0.000563
vn -1.000000 0.000000 -0.000563
vn -0.000041 0.080857 0.996726
vn 0.057057 0.057098 0.996737
vn -0.057293 0.057252 0.996715
vn -0.081052 0.000000 0.996710
vn -0.057293 -0.057252 0.996715
vn -0.000041 -0.080857 0.996726
vn 0.057057 -0.057098 0.996737
vn 0.080663 0.000000 0.996741
vn 0.572285 0.572286 0.587349
vn -0.000000 0.809334 0.587349
vn -0.000000 0.389626 0.920973
vn 0.275508 0.275508 0.920973
vn -0.572285 0.572286 0.587349
vn -0.275508 0.275508 0.920973
vn -0.809334 -0.000000 0.587348
vn -0.389626 -0.000000 0.920973
vn -0.572285 -0.572286 0.587349
vn -0.275508 -0.275508 0.920973
vn -0.000000 -0.809334 0.587349
vn 0.000000 -0.389626 0.920973
vn 0.572285 -0.572286 0.587349
vn 0.275507 -0.275508 0.920973
vn 0.809334 0.000000 0.587349
vn 0.389626 0.000000 0.920973
vn -0.000000 0.000000 1.000000
s off
g polySurface2
usemtl initialShadingGroup
f 11/1/1 8/2/2 6/3/3 9/4/4
f 14/5/5 17/6/6 18/7/7 15/8/8
f 11/1/9 9/4/10 15/8/11 18/7/12
f 15/8/13 9/24/14 10/21/15 16/10/16
f 16/10/17 10/22/18 12/23/19 20/12/20
f 9/4/21 6/3/22 5/13/23 10/9/24
f 20/12/25 19/14/26 13/15/27 16/10/28
f 5/13/29 7/16/30 12/11/31 10/9/32
f 19/14/33 1/17/34 3/18/35 13/15/36
f 4/19/37 3/18/38 1/17/39 2/20/40
f 8/2/41 7/16/42 5/13/43 6/3/44
f 15/8/45 16/10/46 13/15/47 14/5/48
f 14/5/49 13/15/50 3/18/51 4/19/52
f 17/6/53 14/5/54 4/19/55 2/20/56
s 1
f 21/25/57 90/26/58 89/27/59 22/28/60
f 22/28/60 89/27/59 88/29/61 23/30/62
f 23/30/62 88/29/61 87/31/63 24/32/64
f 24/32/64 87/31/63 86/33/65 25/34/66
f 25/35/66 86/36/65 85/37/67 26/38/68
f 26/38/68 85/37/67 84/39/69 27/40/70
f 27/40/70 84/39/69 83/41/71 28/42/72
f 28/42/72 83/41/71 92/43/73 29/44/74
f 29/44/74 92/43/73 91/45/75 30/46/76
f 30/47/76 91/48/75 90/26/58 21/25/57
f 22/28/60 41/49/77 21/25/57
f 23/30/62 41/49/77 22/28/60
f 24/32/64 41/49/77 23/30/62
f 25/34/66 41/49/77 24/32/64
f 26/38/68 41/50/77 25/35/66
f 27/40/70 41/50/77 26/38/68
f 28/42/72 41/50/77 27/40/70
f 29/44/74 41/50/77 28/42/72
f 30/46/76 41/50/77 29/44/74
f 21/25/57 41/49/77 30/47/76
f 31/51/78 42/52/79 32/53/80
f 32/53/80 42/52/79 33/54/81
f 33/54/81 42/52/79 34/55/82
f 34/55/82 42/52/79 35/56/83
f 35/57/83 42/58/79 36/59/84
f 36/59/84 42/58/79 37/60/85
f 37/60/85 42/58/79 38/61/86
f 38/61/86 42/58/79 39/62/87
f 39/62/87 42/58/79 40/63/88
f 40/64/88 42/52/79 31/51/78
f 44/65/89 55/66/90 54/67/91 43/68/92
f 45/69/93 56/70/94 55/66/90 44/65/89
f 46/71/95 57/72/96 56/70/94 45/69/93
f 47/73/97 58/74/98 57/75/96 46/76/95
f 48/77/99 59/78/100 58/74/98 47/73/97
f 49/79/101 60/80/102 59/78/100 48/77/99
f 50/81/103 61/82/104 60/80/102 49/79/101
f 51/83/105 62/84/106 61/82/104 50/81/103
f 52/85/107 53/86/108 62/87/106 51/88/105
f 43/68/92 54/67/91 53/86/108 52/85/107
f 54/67/91 38/61/86 39/62/87 53/86/108
f 55/66/90 37/60/85 38/61/86 54/67/91
f 56/70/94 36/59/84 37/60/85 55/66/90
f 57/72/96 35/57/83 36/59/84 56/70/94
f 58/74/98 34/55/82 35/56/83 57/75/96
f 59/78/100 33/54/81 34/55/82 58/74/98
f 60/80/102 32/53/80 33/54/81 59/78/100
f 61/82/104 31/51/78 32/53/80 60/80/102
f 62/84/106 40/64/88 31/51/78 61/82/104
f 53/86/108 39/62/87 40/63/88 62/87/106
f 64/89/109 43/68/92 52/85/107 63/90/110
f 65/91/111 44/65/89 43/68/92 64/89/109
f 66/92/112 45/69/93 44/65/89 65/91/111
f 67/93/113 46/71/95 45/69/93 66/92/112
f 68/94/114 47/73/97 46/76/95 67/95/113
f 69/96/115 48/77/99 47/73/97 68/94/114
f 70/97/116 49/79/101 48/77/99 69/96/115
f 71/98/117 50/81/103 49/79/101 70/97/116
f 72/99/118 51/83/105 50/81/103 71/98/117
f 63/90/110 52/85/107 51/88/105 72/100/118
f 74/101/119 112/102/120 111/103/121 73/104/122
f 75/105/123 103/106/124 112/102/120 74/101/119
f 76/107/125 104/108/126 103/106/124 75/105/123
f 77/109/127 105/110/128 104/108/126 76/107/125
f 78/111/129 106/112/130 105/113/128 77/114/127
f 79/115/131 107/116/132 106/112/130 78/111/129
f 80/117/133 108/118/134 107/116/132 79/115/131
f 81/119/135 109/120/136 108/118/134 80/117/133
f 82/121/137 110/122/138 109/120/136 81/119/135
f 73/104/122 111/103/121 110/123/138 82/124/137
f 84/39/69 94/125/139 93/126/140 83/41/71
f 85/37/67 95/127/141 94/125/139 84/39/69
f 86/36/65 96/128/142 95/127/141 85/37/67
f 87/31/63 97/129/143 96/130/142 86/33/65
f 88/29/61 98/131/144 97/129/143 87/31/63
f 89/27/59 99/132/145 98/131/144 88/29/61
f 90/26/58 100/133/146 99/132/145 89/27/59
f 91/48/75 101/134/147 100/133/146 90/26/58
f 92/43/73 102/135/148 101/136/147 91/45/75
f 83/41/71 93/126/140 102/135/148 92/43/73
f 94/125/139 75/105/123 74/101/119 93/126/140
f 95/127/141 76/107/125 75/105/123 94/125/139
f 96/128/142 77/109/127 76/107/125 95/127/141
f 97/129/143 78/111/129 77/114/127 96/130/142
f 98/131/144 79/115/131 78/111/129 97/129/143
f 99/132/145 80/117/133 79/115/131 98/131/144
f 100/133/146 81/119/135 80/117/133 99/132/145
f 101/134/147 82/121/137 81/119/135 100/133/146
f 102/135/148 73/104/122 82/124/137 101/136/147
f 93/126/140 74/101/119 73/104/122 102/135/148
f 104/108/126 66/92/112 65/91/111 103/106/124
f 105/110/128 67/93/113 66/92/112 104/108/126
f 106/112/130 68/94/114 67/95/113 105/113/128
f 107/116/132 69/96/115 68/94/114 106/112/130
f 108/118/134 70/97/116 69/96/115 107/116/132
f 109/120/136 71/98/117 70/97/116 108/118/134
f 110/122/138 72/99/118 71/98/117 109/120/136
f 111/103/121 63/90/110 72/100/118 110/123/138
f 112/102/120 64/89/109 63/90/110 111/103/121
f 103/106/124 65/91/111 64/89/109 112/102/120
s 5
f 129/137/149 130/138/150 131/139/151 132/140/152
f 130/138/150 133/141/153 134/142/154 131/139/151
f 133/141/153 135/143/155 136/144/156 134/142/154
f 135/143/155 137/145/157 138/146/158 136/144/156
f 137/145/157 139/147/159 140/148/160 138/146/158
f 139/147/159 141/149/161 142/150/162 140/148/160
f 141/149/161 143/151/163 144/152/164 142/150/162
f 143/151/163 129/137/149 132/140/152 144/152/164
s 6
f 122/153/165 121/154/166 115/155/167 114/156/168
f 123/157/169 122/153/165 114/156/168 113/158/170
f 124/159/171 123/157/169 113/158/170 120/160/172
f 125/161/173 124/159/171 120/160/172 119/162/174
f 126/163/175 125/161/173 119/162/174 118/164/176
f 127/165/177 126/166/175 118/167/176 117/168/178
f 128/169/179 127/165/177 117/168/178 116/170/180
f 121/154/166 128/169/179 116/170/180 115/155/167
s 5
f 122/171/181 123/172/182 132/140/152 131/139/151
f 121/173/183 122/171/181 131/139/151 134/142/154
f 128/174/184 121/173/183 134/142/154 136/144/156
f 127/175/185 128/174/184 136/144/156 138/146/158
f 126/176/186 127/175/185 138/146/158 140/148/160
f 125/177/187 126/176/186 140/148/160 142/150/162
f 124/178/188 125/177/187 142/150/162 144/152/164
f 123/172/182 124/178/188 144/152/164 132/140/152
s 7
f 145/179/189 146/180/190 154/181/191 153/182/192
f 146/180/190 147/183/193 155/184/194 154/181/191
f 155/184/194 147/183/193 148/185/195 156/186/196
f 148/185/195 149/187/197 157/188/198 156/186/196
f 149/187/197 150/189/199 158/190/200 157/188/198
f 150/189/199 151/191/201 159/192/202 158/190/200
f 151/191/201 152/193/203 160/194/204 159/192/202
f 152/193/203 145/179/189 153/182/192 160/194/204
f 153/182/192 154/181/191 161/195/205
f 154/181/191 155/184/194 161/195/205
f 155/184/194 156/186/196 161/195/205
f 156/186/196 157/188/198 161/195/205
f 157/188/198 158/190/200 161/195/205
f 158/190/200 159/192/202 161/195/205
f 159/192/202 160/194/204 161/195/205
f 160/194/204 153/182/192 161/195/205
